<svg xmlns="http://www.w3.org/2000/svg" viewBox="0 0 112.91 37.64"><defs><style>.cls-1{fill:#1a49a8;}</style></defs><title>Recurso 11</title><g id="Capa_2" data-name="Capa 2"><g id="mobil"><g id="header"><path class="cls-1" d="M29.11,9.53a2,2,0,0,1,2-2,1.89,1.89,0,0,1,1.71,1H44.16v-6H2v6H20.07V34.63h6V4.52h13.3a2,2,0,0,1,3.76,1,2,2,0,0,1-3.76,1H28.1V36.63h-10V10.54H0V.5H46.17v10H32.82a1.89,1.89,0,0,1-1.71,1,2,2,0,0,1-2-2ZM3,5.52a2,2,0,0,1,2-2,1.89,1.89,0,0,1,1.71,1H24.09V29.91a1.89,1.89,0,0,1,1,1.71,2,2,0,1,1-4,0,1.89,1.89,0,0,1,1-1.71V6.52H6.72A1.89,1.89,0,0,1,5,7.53a2,2,0,0,1-2-2Z"/><path class="cls-1" d="M53.19,14.55a1.89,1.89,0,0,1,1-1.71V4.52H90.33v-2H52.19V34.63h40.9a2,2,0,1,1,0,2H50.18V.5H92.33v6H56.2v6.32a1.89,1.89,0,0,1,1,1.71,2,2,0,1,1-4,0ZM93.34,2a2,2,0,1,1,4,0,1.93,1.93,0,0,1-1,1.76v6.77H60.22v3H94.34v10H60.22v3H96.35v6H54.2V17.56H87.57a2,2,0,1,1,0,2H56.2v11H94.34v-2H58.21v-7H92.33v-6H58.21v-7H94.34V3.76A1.93,1.93,0,0,1,93.34,2Z"/><path class="cls-1" d="M102.87,36.63V.5h10V36.63Zm8-34.12h-6V34.63h6Zm-5,29.11a1.89,1.89,0,0,1,1-1.71V7.28a1.93,1.93,0,0,1-1-1.76,2,2,0,1,1,4,0,1.93,1.93,0,0,1-1,1.76V29.91a1.89,1.89,0,0,1,1,1.71,2,2,0,1,1-4,0Z"/></g></g></g></svg>